<?xml version="1.0" encoding="UTF-8" standalone="no"?><!DOCTYPE svg PUBLIC "-//W3C//DTD SVG 1.1//EN" "http://www.w3.org/Graphics/SVG/1.1/DTD/svg11.dtd"><svg width="100%" height="100%" viewBox="0 0 1274 873" version="1.1" xmlns="http://www.w3.org/2000/svg" xmlns:xlink="http://www.w3.org/1999/xlink" xml:space="preserve" xmlns:serif="http://www.serif.com/" style="fill-rule:evenodd;clip-rule:evenodd;stroke-linejoin:round;stroke-miterlimit:2;"><rect id="Mesa-de-trabajo2" serif:id="Mesa de trabajo2" x="-0" y="0" width="1273.38" height="872.099" style="fill:none;"/><path d="M153.128,46.226l-107.784,109.109l2.04,282.862l113.302,112.202l-7.558,-504.173Z" style="fill:#183861;"/><path d="M173.918,439.028l271.946,-3.548l-113.159,112.722l-157.257,2.232l-1.53,-111.406Z" style="fill:#183861;"/><path d="M326.762,164.575l112.827,-1.052l6.381,259.134l-114.682,0.894l-4.526,-258.976Z" style="fill:#183861;"/><path d="M327.726,153.113l110.944,-113.387l226.842,-2.247l-109.281,113.055l-228.505,2.579Z" style="fill:#183861;"/><path d="M579.678,161.466l112.078,-1.996l0.454,272.289l-107.503,112.118l-5.029,-382.411Z" style="fill:#183861;"/><path d="M579.231,149.445l110.095,-112.077l223.772,-2.006l-111.929,111.806l-221.938,2.277Z" style="fill:#183861;"/><path d="M936.961,35.601l184.773,-1.902l113.096,107.049l-407.269,6.365l109.4,-111.512Z" style="fill:#183861;"/><path d="M1124.54,158.692l112.214,-2.603l1.524,100.171l-111.375,113.07l-2.363,-210.638Z" style="fill:#183861;"/><path d="M969.365,257.776l140.486,-0.585l0.687,112.773l-139.782,2.527l-1.391,-114.715Z" style="fill:#183861;"/><path d="M841.774,371.439l111.417,-113.349l2.625,168.77l-111.604,115.14l-2.438,-170.561Z" style="fill:#183861;"/><g transform="matrix(21.6435,0,0,18.1421,-588.537,-553.968)"><clipPath id="_clip1"><rect x="29.344" y="63.118" width="55.466" height="8.423"/></clipPath><g clip-path="url(#_clip1)"><g transform="matrix(8.42562,0,0,8.42562,29.1332,69.4375)"><path d="M0.247,-0.227l0,-0.473l0.122,0l0,0.48c0,0.085 -0.015,0.145 -0.044,0.178c-0.029,0.033 -0.072,0.05 -0.127,0.05c-0.055,0 -0.097,-0.016 -0.128,-0.048c-0.03,-0.033 -0.045,-0.093 -0.045,-0.18l-0,-0.48l0.123,0l-0,0.473c-0,0.045 0.003,0.076 0.01,0.092c0.007,0.016 0.02,0.024 0.04,0.024c0.02,0 0.033,-0.008 0.039,-0.024c0.007,-0.016 0.01,-0.047 0.01,-0.092Z" style="fill:#183861;fill-rule:nonzero;"/></g><g transform="matrix(8.42562,0,0,8.42562,32.4529,69.4375)"><path d="M0.323,-0.4l0,0.4l-0.11,-0l-0,-0.335c-0,-0.032 -0.003,-0.053 -0.009,-0.064c-0.005,-0.011 -0.015,-0.016 -0.03,-0.016c-0.014,0 -0.024,0.006 -0.031,0.018c-0.007,0.011 -0.01,0.031 -0.01,0.058l0,0.339l-0.109,-0l-0,-0.51l0.109,0l0,0.057l0.001,0c0.014,-0.042 0.045,-0.063 0.092,-0.063c0.065,0 0.097,0.039 0.097,0.116Z" style="fill:#183861;fill-rule:nonzero;"/></g><g transform="matrix(8.42562,0,0,8.42562,35.3513,69.4375)"><path d="M0.144,-0.666c0,0.044 -0.021,0.066 -0.064,0.066c-0.042,0 -0.063,-0.022 -0.063,-0.066c-0,-0.043 0.021,-0.065 0.063,-0.065c0.043,0 0.064,0.022 0.064,0.065Zm-0.009,0.156l0,0.51l-0.109,0l-0,-0.51l0.109,0Z" style="fill:#183861;fill-rule:nonzero;"/></g><g transform="matrix(8.42562,0,0,8.42562,36.6994,69.4375)"><path d="M0.318,-0.51l-0.088,0.51l-0.141,-0l-0.087,-0.51l0.111,0l0.049,0.351l0.051,-0.351l0.105,0Z" style="fill:#183861;fill-rule:nonzero;"/></g><g transform="matrix(8.42562,0,0,8.42562,39.3534,69.4375)"><path d="M0.296,-0.114l0,0.09c-0.021,0.021 -0.056,0.032 -0.105,0.032c-0.057,0 -0.101,-0.02 -0.132,-0.061c-0.03,-0.042 -0.045,-0.11 -0.045,-0.206c0,-0.173 0.052,-0.259 0.155,-0.259c0.051,0 0.087,0.017 0.11,0.05c0.023,0.033 0.034,0.09 0.034,0.169l0,0.071l-0.192,0c0.001,0.048 0.009,0.083 0.024,0.105c0.015,0.022 0.037,0.033 0.066,0.033c0.035,0 0.064,-0.008 0.085,-0.024Zm-0.175,-0.191l0.089,0c0,-0.047 -0.003,-0.078 -0.009,-0.094c-0.007,-0.016 -0.017,-0.024 -0.032,-0.024c-0.029,0 -0.045,0.039 -0.048,0.118Z" style="fill:#183861;fill-rule:nonzero;"/></g><g transform="matrix(8.42562,0,0,8.42562,42.1255,69.4375)"><path d="M0.133,-0.277l0,0.277l-0.109,-0l-0,-0.51l0.106,0l0,0.068l0.001,0c0.011,-0.049 0.036,-0.074 0.075,-0.074c0.01,0 0.021,0.002 0.033,0.006l0,0.108c-0.009,-0.006 -0.023,-0.009 -0.042,-0.009c-0.023,0 -0.04,0.01 -0.05,0.03c-0.009,0.02 -0.014,0.055 -0.014,0.104Z" style="fill:#183861;fill-rule:nonzero;"/></g><g transform="matrix(8.42562,0,0,8.42562,44.2066,69.4375)"><path d="M0.019,-0.013l0,-0.099c0.021,0.017 0.051,0.025 0.088,0.025c0.031,-0 0.046,-0.016 0.046,-0.047c0,-0.017 -0.005,-0.032 -0.014,-0.046c-0.01,-0.015 -0.022,-0.028 -0.036,-0.04c-0.014,-0.011 -0.028,-0.024 -0.042,-0.037c-0.014,-0.013 -0.026,-0.031 -0.035,-0.053c-0.01,-0.022 -0.015,-0.047 -0.015,-0.076c0,-0.039 0.011,-0.07 0.033,-0.095c0.022,-0.025 0.058,-0.037 0.108,-0.037c0.026,0 0.056,0.005 0.089,0.014l0,0.097c-0.023,-0.011 -0.05,-0.016 -0.079,-0.016c-0.029,0 -0.043,0.012 -0.043,0.035c0,0.015 0.005,0.028 0.015,0.041c0.009,0.013 0.021,0.025 0.035,0.037c0.014,0.012 0.028,0.025 0.042,0.039c0.014,0.014 0.026,0.032 0.036,0.055c0.009,0.023 0.014,0.049 0.014,0.078c0,0.097 -0.047,0.146 -0.14,0.146c-0.035,0 -0.069,-0.007 -0.102,-0.021Z" style="fill:#183861;fill-rule:nonzero;"/></g><g transform="matrix(8.42562,0,0,8.42562,46.4984,69.4375)"><path d="M0.144,-0.666c0,0.044 -0.021,0.066 -0.064,0.066c-0.042,0 -0.063,-0.022 -0.063,-0.066c-0,-0.043 0.021,-0.065 0.063,-0.065c0.043,0 0.064,0.022 0.064,0.065Zm-0.009,0.156l0,0.51l-0.109,0l-0,-0.51l0.109,0Z" style="fill:#183861;fill-rule:nonzero;"/></g><g transform="matrix(8.42562,0,0,8.42562,47.8465,69.4375)"><path d="M0.226,-0.459l0,-0.291l0.109,0l0,0.75l-0.107,-0l-0,-0.059l-0.001,0c-0.013,0.043 -0.042,0.065 -0.086,0.065c-0.014,0 -0.027,-0.002 -0.038,-0.005c-0.011,-0.004 -0.023,-0.012 -0.034,-0.023c-0.011,-0.011 -0.02,-0.027 -0.027,-0.046c-0.007,-0.019 -0.013,-0.044 -0.018,-0.076c-0.005,-0.032 -0.007,-0.07 -0.007,-0.113c-0,-0.068 0.005,-0.122 0.016,-0.16c0.011,-0.039 0.025,-0.066 0.042,-0.079c0.018,-0.013 0.039,-0.02 0.066,-0.02c0.044,0 0.072,0.019 0.084,0.057l0.001,0Zm-0.022,0.052c-0.006,-0.007 -0.015,-0.011 -0.027,-0.011c-0.012,0 -0.021,0.003 -0.027,0.01c-0.006,0.007 -0.011,0.022 -0.015,0.046c-0.004,0.024 -0.006,0.059 -0.006,0.106c-0,0.045 0.002,0.08 0.006,0.105c0.005,0.025 0.01,0.041 0.016,0.048c0.007,0.007 0.015,0.011 0.026,0.011c0.018,0 0.031,-0.011 0.038,-0.032c0.007,-0.021 0.011,-0.065 0.011,-0.131c-0,-0.045 -0.002,-0.08 -0.006,-0.104c-0.004,-0.025 -0.009,-0.041 -0.016,-0.048Z" style="fill:#183861;fill-rule:nonzero;"/></g><g transform="matrix(8.42562,0,0,8.42562,50.8713,69.4375)"><path d="M0.196,-0.172l0,-0.054c-0.011,-0.001 -0.018,-0.002 -0.022,-0.002c-0.02,0 -0.034,0.005 -0.041,0.014c-0.007,0.009 -0.01,0.027 -0.01,0.053c-0,0.027 0.003,0.045 0.008,0.056c0.005,0.011 0.014,0.016 0.026,0.016c0.026,0 0.039,-0.028 0.039,-0.083Zm0.109,-0.178l0,0.35l-0.104,-0l0,-0.058l-0.001,-0c-0.013,0.043 -0.042,0.064 -0.086,0.064c-0.067,-0 -0.1,-0.052 -0.1,-0.155c0,-0.055 0.011,-0.096 0.033,-0.122c0.021,-0.026 0.057,-0.039 0.106,-0.039c0.007,-0 0.021,0.001 0.043,0.003l0,-0.036c0,-0.029 -0.004,-0.049 -0.011,-0.06c-0.008,-0.01 -0.022,-0.015 -0.043,-0.015c-0.038,-0 -0.071,0.008 -0.1,0.024l0,-0.098c0.036,-0.017 0.078,-0.026 0.125,-0.026c0.052,-0 0.088,0.013 0.108,0.038c0.02,0.026 0.03,0.069 0.03,0.13Z" style="fill:#183861;fill-rule:nonzero;"/></g><g transform="matrix(8.42562,0,0,8.42562,53.618,69.4375)"><path d="M0.226,-0.459l0,-0.291l0.109,0l0,0.75l-0.107,-0l-0,-0.059l-0.001,0c-0.013,0.043 -0.042,0.065 -0.086,0.065c-0.014,0 -0.027,-0.002 -0.038,-0.005c-0.011,-0.004 -0.023,-0.012 -0.034,-0.023c-0.011,-0.011 -0.02,-0.027 -0.027,-0.046c-0.007,-0.019 -0.013,-0.044 -0.018,-0.076c-0.005,-0.032 -0.007,-0.07 -0.007,-0.113c-0,-0.068 0.005,-0.122 0.016,-0.16c0.011,-0.039 0.025,-0.066 0.042,-0.079c0.018,-0.013 0.039,-0.02 0.066,-0.02c0.044,0 0.072,0.019 0.084,0.057l0.001,0Zm-0.022,0.052c-0.006,-0.007 -0.015,-0.011 -0.027,-0.011c-0.012,0 -0.021,0.003 -0.027,0.01c-0.006,0.007 -0.011,0.022 -0.015,0.046c-0.004,0.024 -0.006,0.059 -0.006,0.106c-0,0.045 0.002,0.08 0.006,0.105c0.005,0.025 0.01,0.041 0.016,0.048c0.007,0.007 0.015,0.011 0.026,0.011c0.018,0 0.031,-0.011 0.038,-0.032c0.007,-0.021 0.011,-0.065 0.011,-0.131c-0,-0.045 -0.002,-0.08 -0.006,-0.104c-0.004,-0.025 -0.009,-0.041 -0.016,-0.048Z" style="fill:#183861;fill-rule:nonzero;"/></g><g transform="matrix(8.42562,0,0,8.42562,57.7213,69.4375)"><path d="M0.241,-0.582l0,0.582l-0.123,-0l0,-0.582l-0.109,0l0,-0.118l0.341,-0l0,0.118l-0.109,0Z" style="fill:#183861;fill-rule:nonzero;"/></g><g transform="matrix(8.42562,0,0,8.42562,60.1647,69.4375)"><path d="M0.296,-0.114l0,0.09c-0.021,0.021 -0.056,0.032 -0.105,0.032c-0.057,0 -0.101,-0.02 -0.132,-0.061c-0.03,-0.042 -0.045,-0.11 -0.045,-0.206c0,-0.173 0.052,-0.259 0.155,-0.259c0.051,0 0.087,0.017 0.11,0.05c0.023,0.033 0.034,0.09 0.034,0.169l0,0.071l-0.192,0c0.001,0.048 0.009,0.083 0.024,0.105c0.015,0.022 0.037,0.033 0.066,0.033c0.035,0 0.064,-0.008 0.085,-0.024Zm-0.175,-0.191l0.089,0c0,-0.047 -0.003,-0.078 -0.009,-0.094c-0.007,-0.016 -0.017,-0.024 -0.032,-0.024c-0.029,0 -0.045,0.039 -0.048,0.118Z" style="fill:#183861;fill-rule:nonzero;"/></g><g transform="matrix(8.42562,0,0,8.42562,62.9367,69.4375)"><path d="M0.273,-0.107l0,0.096c-0.023,0.013 -0.051,0.019 -0.084,0.019c-0.06,-0 -0.104,-0.021 -0.133,-0.064c-0.028,-0.042 -0.042,-0.11 -0.042,-0.203c0,-0.091 0.014,-0.157 0.041,-0.198c0.027,-0.041 0.071,-0.061 0.132,-0.061c0.03,0 0.058,0.005 0.083,0.016l0,0.098c-0.017,-0.009 -0.038,-0.013 -0.061,-0.013c-0.029,0 -0.05,0.011 -0.063,0.033c-0.013,0.021 -0.019,0.061 -0.019,0.119c-0,0.066 0.007,0.111 0.02,0.135c0.013,0.024 0.035,0.036 0.065,0.036c0.025,-0 0.046,-0.004 0.061,-0.013Z" style="fill:#183861;fill-rule:nonzero;"/></g><g transform="matrix(8.42562,0,0,8.42562,65.338,69.4375)"><path d="M0.323,-0.4l0,0.4l-0.11,-0l-0,-0.335c-0,-0.032 -0.003,-0.053 -0.009,-0.064c-0.005,-0.011 -0.015,-0.016 -0.03,-0.016c-0.014,0 -0.024,0.006 -0.031,0.018c-0.007,0.011 -0.01,0.031 -0.01,0.058l0,0.339l-0.109,-0l-0,-0.51l0.109,0l0,0.057l0.001,0c0.014,-0.042 0.045,-0.063 0.092,-0.063c0.065,0 0.097,0.039 0.097,0.116Z" style="fill:#183861;fill-rule:nonzero;"/></g><g transform="matrix(8.42562,0,0,8.42562,68.2364,69.4375)"><path d="M0.175,-0.091c0.011,-0 0.02,-0.003 0.027,-0.011c0.007,-0.007 0.012,-0.022 0.016,-0.047c0.004,-0.025 0.006,-0.06 0.006,-0.106c-0,-0.047 -0.002,-0.082 -0.007,-0.107c-0.004,-0.025 -0.009,-0.04 -0.016,-0.047c-0.006,-0.007 -0.015,-0.01 -0.026,-0.01c-0.012,0 -0.021,0.004 -0.028,0.01c-0.006,0.007 -0.011,0.023 -0.015,0.047c-0.004,0.025 -0.006,0.06 -0.006,0.107c0,0.046 0.002,0.082 0.007,0.107c0.005,0.025 0.01,0.04 0.016,0.047c0.007,0.007 0.015,0.01 0.026,0.01Zm0,0.099c-0.053,0 -0.093,-0.02 -0.12,-0.06c-0.027,-0.041 -0.041,-0.108 -0.041,-0.203c-0,-0.097 0.013,-0.166 0.04,-0.205c0.027,-0.038 0.067,-0.058 0.121,-0.058c0.056,0 0.097,0.019 0.122,0.058c0.026,0.039 0.039,0.107 0.039,0.205c0,0.096 -0.014,0.164 -0.041,0.204c-0.027,0.039 -0.067,0.059 -0.12,0.059Z" style="fill:#183861;fill-rule:nonzero;"/></g><g transform="matrix(8.42562,0,0,8.42562,71.1854,69.4375)"><rect x="0.024" y="-0.75" width="0.109" height="0.75" style="fill:#183861;fill-rule:nonzero;"/></g><g transform="matrix(8.42562,0,0,8.42562,72.4998,69.4375)"><path d="M0.175,-0.091c0.011,-0 0.02,-0.003 0.027,-0.011c0.007,-0.007 0.012,-0.022 0.016,-0.047c0.004,-0.025 0.006,-0.06 0.006,-0.106c-0,-0.047 -0.002,-0.082 -0.007,-0.107c-0.004,-0.025 -0.009,-0.04 -0.016,-0.047c-0.006,-0.007 -0.015,-0.01 -0.026,-0.01c-0.012,0 -0.021,0.004 -0.028,0.01c-0.006,0.007 -0.011,0.023 -0.015,0.047c-0.004,0.025 -0.006,0.06 -0.006,0.107c0,0.046 0.002,0.082 0.007,0.107c0.005,0.025 0.01,0.04 0.016,0.047c0.007,0.007 0.015,0.01 0.026,0.01Zm0,0.099c-0.053,0 -0.093,-0.02 -0.12,-0.06c-0.027,-0.041 -0.041,-0.108 -0.041,-0.203c-0,-0.097 0.013,-0.166 0.04,-0.205c0.027,-0.038 0.067,-0.058 0.121,-0.058c0.056,0 0.097,0.019 0.122,0.058c0.026,0.039 0.039,0.107 0.039,0.205c0,0.096 -0.014,0.164 -0.041,0.204c-0.027,0.039 -0.067,0.059 -0.12,0.059Zm0.141,-0.74l-0.102,0.138l-0.071,0l0.054,-0.138l0.119,0Z" style="fill:#183861;fill-rule:nonzero;"/></g><g transform="matrix(8.42562,0,0,8.42562,75.4488,69.4375)"><path d="M0.228,-0.455l0,-0.055l0.107,0l0,0.524c0,0.135 -0.061,0.203 -0.184,0.203c-0.045,-0 -0.079,-0.007 -0.104,-0.021l-0,-0.102c0.027,0.015 0.055,0.022 0.085,0.022c0.033,-0 0.056,-0.008 0.072,-0.025c0.014,-0.017 0.022,-0.044 0.022,-0.082l0,-0.079l-0.001,-0c-0.015,0.047 -0.044,0.07 -0.088,0.07c-0.017,-0 -0.033,-0.003 -0.046,-0.01c-0.013,-0.007 -0.025,-0.019 -0.037,-0.036c-0.012,-0.017 -0.021,-0.043 -0.028,-0.078c-0.006,-0.034 -0.009,-0.076 -0.009,-0.127c-0,-0.101 0.01,-0.171 0.031,-0.209c0.021,-0.037 0.051,-0.056 0.092,-0.056c0.026,0 0.045,0.005 0.058,0.015c0.014,0.011 0.023,0.026 0.029,0.046l0.001,0Zm-0.051,0.037c-0.011,0 -0.019,0.004 -0.025,0.011c-0.007,0.007 -0.012,0.022 -0.016,0.047c-0.005,0.024 -0.007,0.059 -0.007,0.104c0,0.042 0.002,0.075 0.007,0.099c0.005,0.024 0.01,0.04 0.017,0.047c0.007,0.007 0.015,0.011 0.025,0.011c0.017,-0 0.03,-0.011 0.037,-0.032c0.007,-0.021 0.011,-0.063 0.011,-0.125c-0,-0.066 -0.004,-0.109 -0.011,-0.131c-0.007,-0.02 -0.02,-0.031 -0.038,-0.031Z" style="fill:#183861;fill-rule:nonzero;"/></g><g transform="matrix(8.42562,0,0,8.42562,78.4736,69.4375)"><path d="M0.144,-0.666c0,0.044 -0.021,0.066 -0.064,0.066c-0.042,0 -0.063,-0.022 -0.063,-0.066c-0,-0.043 0.021,-0.065 0.063,-0.065c0.043,0 0.064,0.022 0.064,0.065Zm-0.009,0.156l0,0.51l-0.109,0l-0,-0.51l0.109,0Z" style="fill:#183861;fill-rule:nonzero;"/></g><g transform="matrix(8.42562,0,0,8.42562,79.8217,69.4375)"><path d="M0.273,-0.107l0,0.096c-0.023,0.013 -0.051,0.019 -0.084,0.019c-0.06,-0 -0.104,-0.021 -0.133,-0.064c-0.028,-0.042 -0.042,-0.11 -0.042,-0.203c0,-0.091 0.014,-0.157 0.041,-0.198c0.027,-0.041 0.071,-0.061 0.132,-0.061c0.03,0 0.058,0.005 0.083,0.016l0,0.098c-0.017,-0.009 -0.038,-0.013 -0.061,-0.013c-0.029,0 -0.05,0.011 -0.063,0.033c-0.013,0.021 -0.019,0.061 -0.019,0.119c-0,0.066 0.007,0.111 0.02,0.135c0.013,0.024 0.035,0.036 0.065,0.036c0.025,-0 0.046,-0.004 0.061,-0.013Z" style="fill:#183861;fill-rule:nonzero;"/></g><g transform="matrix(8.42562,0,0,8.42562,82.2398,69.4375)"><path d="M0.196,-0.172l0,-0.054c-0.011,-0.001 -0.018,-0.002 -0.022,-0.002c-0.02,0 -0.034,0.005 -0.041,0.014c-0.007,0.009 -0.01,0.027 -0.01,0.053c-0,0.027 0.003,0.045 0.008,0.056c0.005,0.011 0.014,0.016 0.026,0.016c0.026,0 0.039,-0.028 0.039,-0.083Zm0.109,-0.178l0,0.35l-0.104,-0l0,-0.058l-0.001,-0c-0.013,0.043 -0.042,0.064 -0.086,0.064c-0.067,-0 -0.1,-0.052 -0.1,-0.155c0,-0.055 0.011,-0.096 0.033,-0.122c0.021,-0.026 0.057,-0.039 0.106,-0.039c0.007,-0 0.021,0.001 0.043,0.003l0,-0.036c0,-0.029 -0.004,-0.049 -0.011,-0.06c-0.008,-0.01 -0.022,-0.015 -0.043,-0.015c-0.038,-0 -0.071,0.008 -0.1,0.024l0,-0.098c0.036,-0.017 0.078,-0.026 0.125,-0.026c0.052,-0 0.088,0.013 0.108,0.038c0.02,0.026 0.03,0.069 0.03,0.13Z" style="fill:#183861;fill-rule:nonzero;"/></g><g transform="matrix(8.42562,0,0,8.42562,45.344,77.8631)"><path d="M0.226,-0.459l0,-0.291l0.109,0l0,0.75l-0.107,-0l-0,-0.059l-0.001,0c-0.013,0.043 -0.042,0.065 -0.086,0.065c-0.014,0 -0.027,-0.002 -0.038,-0.005c-0.011,-0.004 -0.023,-0.012 -0.034,-0.023c-0.011,-0.011 -0.02,-0.027 -0.027,-0.046c-0.007,-0.019 -0.013,-0.044 -0.018,-0.076c-0.005,-0.032 -0.007,-0.07 -0.007,-0.113c-0,-0.068 0.005,-0.122 0.016,-0.16c0.011,-0.039 0.025,-0.066 0.042,-0.079c0.018,-0.013 0.039,-0.02 0.066,-0.02c0.044,0 0.072,0.019 0.084,0.057l0.001,0Zm-0.022,0.052c-0.006,-0.007 -0.015,-0.011 -0.027,-0.011c-0.012,0 -0.021,0.003 -0.027,0.01c-0.006,0.007 -0.011,0.022 -0.015,0.046c-0.004,0.024 -0.006,0.059 -0.006,0.106c-0,0.045 0.002,0.08 0.006,0.105c0.005,0.025 0.01,0.041 0.016,0.048c0.007,0.007 0.015,0.011 0.026,0.011c0.018,0 0.031,-0.011 0.038,-0.032c0.007,-0.021 0.011,-0.065 0.011,-0.131c-0,-0.045 -0.002,-0.08 -0.006,-0.104c-0.004,-0.025 -0.009,-0.041 -0.016,-0.048Z" style="fill:#183861;fill-rule:nonzero;"/></g><g transform="matrix(8.42562,0,0,8.42562,48.3688,77.8631)"><path d="M0.296,-0.114l0,0.09c-0.021,0.021 -0.056,0.032 -0.105,0.032c-0.057,0 -0.101,-0.02 -0.132,-0.061c-0.03,-0.042 -0.045,-0.11 -0.045,-0.206c0,-0.173 0.052,-0.259 0.155,-0.259c0.051,0 0.087,0.017 0.11,0.05c0.023,0.033 0.034,0.09 0.034,0.169l0,0.071l-0.192,0c0.001,0.048 0.009,0.083 0.024,0.105c0.015,0.022 0.037,0.033 0.066,0.033c0.035,0 0.064,-0.008 0.085,-0.024Zm-0.175,-0.191l0.089,0c0,-0.047 -0.003,-0.078 -0.009,-0.094c-0.007,-0.016 -0.017,-0.024 -0.032,-0.024c-0.029,0 -0.045,0.039 -0.048,0.118Z" style="fill:#183861;fill-rule:nonzero;"/></g><g transform="matrix(8.42562,0,0,8.42562,52.2194,77.8631)"><path d="M0.147,-0.587l0,0.24l0.026,-0c0.021,-0 0.037,-0.01 0.046,-0.029c0.009,-0.019 0.013,-0.049 0.013,-0.092c0,-0.044 -0.004,-0.075 -0.013,-0.093c-0.009,-0.017 -0.024,-0.026 -0.045,-0.026l-0.027,0Zm0.003,0.353l0,0.234l-0.122,-0l0,-0.7l0.156,0c0.059,0 0.102,0.018 0.13,0.054c0.028,0.035 0.042,0.093 0.042,0.173c0,0.08 -0.015,0.14 -0.043,0.18c-0.029,0.039 -0.076,0.059 -0.14,0.059l-0.023,-0Z" style="fill:#183861;fill-rule:nonzero;"/></g><g transform="matrix(8.42562,0,0,8.42562,55.2273,77.8631)"><path d="M0.296,-0.114l0,0.09c-0.021,0.021 -0.056,0.032 -0.105,0.032c-0.057,0 -0.101,-0.02 -0.132,-0.061c-0.03,-0.042 -0.045,-0.11 -0.045,-0.206c0,-0.173 0.052,-0.259 0.155,-0.259c0.051,0 0.087,0.017 0.11,0.05c0.023,0.033 0.034,0.09 0.034,0.169l0,0.071l-0.192,0c0.001,0.048 0.009,0.083 0.024,0.105c0.015,0.022 0.037,0.033 0.066,0.033c0.035,0 0.064,-0.008 0.085,-0.024Zm-0.175,-0.191l0.089,0c0,-0.047 -0.003,-0.078 -0.009,-0.094c-0.007,-0.016 -0.017,-0.024 -0.032,-0.024c-0.029,0 -0.045,0.039 -0.048,0.118Z" style="fill:#183861;fill-rule:nonzero;"/></g><g transform="matrix(8.42562,0,0,8.42562,57.9993,77.8631)"><path d="M0.133,-0.277l0,0.277l-0.109,-0l-0,-0.51l0.106,0l0,0.068l0.001,0c0.011,-0.049 0.036,-0.074 0.075,-0.074c0.01,0 0.021,0.002 0.033,0.006l0,0.108c-0.009,-0.006 -0.023,-0.009 -0.042,-0.009c-0.023,0 -0.04,0.01 -0.05,0.03c-0.009,0.02 -0.014,0.055 -0.014,0.104Z" style="fill:#183861;fill-rule:nonzero;"/></g><g transform="matrix(8.42562,0,0,8.42562,59.9541,77.8631)"><path d="M0.296,-0.114l0,0.09c-0.021,0.021 -0.056,0.032 -0.105,0.032c-0.057,0 -0.101,-0.02 -0.132,-0.061c-0.03,-0.042 -0.045,-0.11 -0.045,-0.206c0,-0.173 0.052,-0.259 0.155,-0.259c0.051,0 0.087,0.017 0.11,0.05c0.023,0.033 0.034,0.09 0.034,0.169l0,0.071l-0.192,0c0.001,0.048 0.009,0.083 0.024,0.105c0.015,0.022 0.037,0.033 0.066,0.033c0.035,0 0.064,-0.008 0.085,-0.024Zm-0.175,-0.191l0.089,0c0,-0.047 -0.003,-0.078 -0.009,-0.094c-0.007,-0.016 -0.017,-0.024 -0.032,-0.024c-0.029,0 -0.045,0.039 -0.048,0.118Z" style="fill:#183861;fill-rule:nonzero;"/></g><g transform="matrix(8.42562,0,0,8.42562,62.7261,77.8631)"><path d="M0.144,-0.666c0,0.044 -0.021,0.066 -0.064,0.066c-0.042,0 -0.063,-0.022 -0.063,-0.066c-0,-0.043 0.021,-0.065 0.063,-0.065c0.043,0 0.064,0.022 0.064,0.065Zm-0.009,0.156l0,0.51l-0.109,0l-0,-0.51l0.109,0Z" style="fill:#183861;fill-rule:nonzero;"/></g><g transform="matrix(8.42562,0,0,8.42562,64.0742,77.8631)"><path d="M0.133,-0.277l0,0.277l-0.109,-0l-0,-0.51l0.106,0l0,0.068l0.001,0c0.011,-0.049 0.036,-0.074 0.075,-0.074c0.01,0 0.021,0.002 0.033,0.006l0,0.108c-0.009,-0.006 -0.023,-0.009 -0.042,-0.009c-0.023,0 -0.04,0.01 -0.05,0.03c-0.009,0.02 -0.014,0.055 -0.014,0.104Z" style="fill:#183861;fill-rule:nonzero;"/></g><g transform="matrix(8.42562,0,0,8.42562,66.0289,77.8631)"><path d="M0.196,-0.172l0,-0.054c-0.011,-0.001 -0.018,-0.002 -0.022,-0.002c-0.02,0 -0.034,0.005 -0.041,0.014c-0.007,0.009 -0.01,0.027 -0.01,0.053c-0,0.027 0.003,0.045 0.008,0.056c0.005,0.011 0.014,0.016 0.026,0.016c0.026,0 0.039,-0.028 0.039,-0.083Zm0.109,-0.178l0,0.35l-0.104,-0l0,-0.058l-0.001,-0c-0.013,0.043 -0.042,0.064 -0.086,0.064c-0.067,-0 -0.1,-0.052 -0.1,-0.155c0,-0.055 0.011,-0.096 0.033,-0.122c0.021,-0.026 0.057,-0.039 0.106,-0.039c0.007,-0 0.021,0.001 0.043,0.003l0,-0.036c0,-0.029 -0.004,-0.049 -0.011,-0.06c-0.008,-0.01 -0.022,-0.015 -0.043,-0.015c-0.038,-0 -0.071,0.008 -0.1,0.024l0,-0.098c0.036,-0.017 0.078,-0.026 0.125,-0.026c0.052,-0 0.088,0.013 0.108,0.038c0.02,0.026 0.03,0.069 0.03,0.13Z" style="fill:#183861;fill-rule:nonzero;"/></g></g></g><g transform="matrix(21.5983,0,0,18.1421,-589.747,-581.068)"><clipPath id="_clip2"><rect x="29.344" y="71.217" width="55.466" height="6.713"/></clipPath><g clip-path="url(#_clip2)"><g transform="matrix(8.42562,0,0,8.42562,29.1332,69.4375)"><path d="M0.247,-0.227l0,-0.473l0.122,0l0,0.48c0,0.085 -0.015,0.145 -0.044,0.178c-0.029,0.033 -0.072,0.05 -0.127,0.05c-0.055,0 -0.097,-0.016 -0.128,-0.048c-0.03,-0.033 -0.045,-0.093 -0.045,-0.18l-0,-0.48l0.123,0l-0,0.473c-0,0.045 0.003,0.076 0.01,0.092c0.007,0.016 0.02,0.024 0.04,0.024c0.02,0 0.033,-0.008 0.039,-0.024c0.007,-0.016 0.01,-0.047 0.01,-0.092Z" style="fill:#183861;fill-rule:nonzero;"/></g><g transform="matrix(8.42562,0,0,8.42562,32.4529,69.4375)"><path d="M0.323,-0.4l0,0.4l-0.11,-0l-0,-0.335c-0,-0.032 -0.003,-0.053 -0.009,-0.064c-0.005,-0.011 -0.015,-0.016 -0.03,-0.016c-0.014,0 -0.024,0.006 -0.031,0.018c-0.007,0.011 -0.01,0.031 -0.01,0.058l0,0.339l-0.109,-0l-0,-0.51l0.109,0l0,0.057l0.001,0c0.014,-0.042 0.045,-0.063 0.092,-0.063c0.065,0 0.097,0.039 0.097,0.116Z" style="fill:#183861;fill-rule:nonzero;"/></g><g transform="matrix(8.42562,0,0,8.42562,35.3513,69.4375)"><path d="M0.144,-0.666c0,0.044 -0.021,0.066 -0.064,0.066c-0.042,0 -0.063,-0.022 -0.063,-0.066c-0,-0.043 0.021,-0.065 0.063,-0.065c0.043,0 0.064,0.022 0.064,0.065Zm-0.009,0.156l0,0.51l-0.109,0l-0,-0.51l0.109,0Z" style="fill:#183861;fill-rule:nonzero;"/></g><g transform="matrix(8.42562,0,0,8.42562,36.6994,69.4375)"><path d="M0.318,-0.51l-0.088,0.51l-0.141,-0l-0.087,-0.51l0.111,0l0.049,0.351l0.051,-0.351l0.105,0Z" style="fill:#183861;fill-rule:nonzero;"/></g><g transform="matrix(8.42562,0,0,8.42562,39.3534,69.4375)"><path d="M0.296,-0.114l0,0.09c-0.021,0.021 -0.056,0.032 -0.105,0.032c-0.057,0 -0.101,-0.02 -0.132,-0.061c-0.03,-0.042 -0.045,-0.11 -0.045,-0.206c0,-0.173 0.052,-0.259 0.155,-0.259c0.051,0 0.087,0.017 0.11,0.05c0.023,0.033 0.034,0.09 0.034,0.169l0,0.071l-0.192,0c0.001,0.048 0.009,0.083 0.024,0.105c0.015,0.022 0.037,0.033 0.066,0.033c0.035,0 0.064,-0.008 0.085,-0.024Zm-0.175,-0.191l0.089,0c0,-0.047 -0.003,-0.078 -0.009,-0.094c-0.007,-0.016 -0.017,-0.024 -0.032,-0.024c-0.029,0 -0.045,0.039 -0.048,0.118Z" style="fill:#183861;fill-rule:nonzero;"/></g><g transform="matrix(8.42562,0,0,8.42562,42.1255,69.4375)"><path d="M0.133,-0.277l0,0.277l-0.109,-0l-0,-0.51l0.106,0l0,0.068l0.001,0c0.011,-0.049 0.036,-0.074 0.075,-0.074c0.01,0 0.021,0.002 0.033,0.006l0,0.108c-0.009,-0.006 -0.023,-0.009 -0.042,-0.009c-0.023,0 -0.04,0.01 -0.05,0.03c-0.009,0.02 -0.014,0.055 -0.014,0.104Z" style="fill:#183861;fill-rule:nonzero;"/></g><g transform="matrix(8.42562,0,0,8.42562,44.2066,69.4375)"><path d="M0.019,-0.013l0,-0.099c0.021,0.017 0.051,0.025 0.088,0.025c0.031,-0 0.046,-0.016 0.046,-0.047c0,-0.017 -0.005,-0.032 -0.014,-0.046c-0.01,-0.015 -0.022,-0.028 -0.036,-0.04c-0.014,-0.011 -0.028,-0.024 -0.042,-0.037c-0.014,-0.013 -0.026,-0.031 -0.035,-0.053c-0.01,-0.022 -0.015,-0.047 -0.015,-0.076c0,-0.039 0.011,-0.07 0.033,-0.095c0.022,-0.025 0.058,-0.037 0.108,-0.037c0.026,0 0.056,0.005 0.089,0.014l0,0.097c-0.023,-0.011 -0.05,-0.016 -0.079,-0.016c-0.029,0 -0.043,0.012 -0.043,0.035c0,0.015 0.005,0.028 0.015,0.041c0.009,0.013 0.021,0.025 0.035,0.037c0.014,0.012 0.028,0.025 0.042,0.039c0.014,0.014 0.026,0.032 0.036,0.055c0.009,0.023 0.014,0.049 0.014,0.078c0,0.097 -0.047,0.146 -0.14,0.146c-0.035,0 -0.069,-0.007 -0.102,-0.021Z" style="fill:#183861;fill-rule:nonzero;"/></g><g transform="matrix(8.42562,0,0,8.42562,46.4984,69.4375)"><path d="M0.144,-0.666c0,0.044 -0.021,0.066 -0.064,0.066c-0.042,0 -0.063,-0.022 -0.063,-0.066c-0,-0.043 0.021,-0.065 0.063,-0.065c0.043,0 0.064,0.022 0.064,0.065Zm-0.009,0.156l0,0.51l-0.109,0l-0,-0.51l0.109,0Z" style="fill:#183861;fill-rule:nonzero;"/></g><g transform="matrix(8.42562,0,0,8.42562,47.8465,69.4375)"><path d="M0.226,-0.459l0,-0.291l0.109,0l0,0.75l-0.107,-0l-0,-0.059l-0.001,0c-0.013,0.043 -0.042,0.065 -0.086,0.065c-0.014,0 -0.027,-0.002 -0.038,-0.005c-0.011,-0.004 -0.023,-0.012 -0.034,-0.023c-0.011,-0.011 -0.02,-0.027 -0.027,-0.046c-0.007,-0.019 -0.013,-0.044 -0.018,-0.076c-0.005,-0.032 -0.007,-0.07 -0.007,-0.113c-0,-0.068 0.005,-0.122 0.016,-0.16c0.011,-0.039 0.025,-0.066 0.042,-0.079c0.018,-0.013 0.039,-0.02 0.066,-0.02c0.044,0 0.072,0.019 0.084,0.057l0.001,0Zm-0.022,0.052c-0.006,-0.007 -0.015,-0.011 -0.027,-0.011c-0.012,0 -0.021,0.003 -0.027,0.01c-0.006,0.007 -0.011,0.022 -0.015,0.046c-0.004,0.024 -0.006,0.059 -0.006,0.106c-0,0.045 0.002,0.08 0.006,0.105c0.005,0.025 0.01,0.041 0.016,0.048c0.007,0.007 0.015,0.011 0.026,0.011c0.018,0 0.031,-0.011 0.038,-0.032c0.007,-0.021 0.011,-0.065 0.011,-0.131c-0,-0.045 -0.002,-0.08 -0.006,-0.104c-0.004,-0.025 -0.009,-0.041 -0.016,-0.048Z" style="fill:#183861;fill-rule:nonzero;"/></g><g transform="matrix(8.42562,0,0,8.42562,50.8713,69.4375)"><path d="M0.196,-0.172l0,-0.054c-0.011,-0.001 -0.018,-0.002 -0.022,-0.002c-0.02,0 -0.034,0.005 -0.041,0.014c-0.007,0.009 -0.01,0.027 -0.01,0.053c-0,0.027 0.003,0.045 0.008,0.056c0.005,0.011 0.014,0.016 0.026,0.016c0.026,0 0.039,-0.028 0.039,-0.083Zm0.109,-0.178l0,0.35l-0.104,-0l0,-0.058l-0.001,-0c-0.013,0.043 -0.042,0.064 -0.086,0.064c-0.067,-0 -0.1,-0.052 -0.1,-0.155c0,-0.055 0.011,-0.096 0.033,-0.122c0.021,-0.026 0.057,-0.039 0.106,-0.039c0.007,-0 0.021,0.001 0.043,0.003l0,-0.036c0,-0.029 -0.004,-0.049 -0.011,-0.06c-0.008,-0.01 -0.022,-0.015 -0.043,-0.015c-0.038,-0 -0.071,0.008 -0.1,0.024l0,-0.098c0.036,-0.017 0.078,-0.026 0.125,-0.026c0.052,-0 0.088,0.013 0.108,0.038c0.02,0.026 0.03,0.069 0.03,0.13Z" style="fill:#183861;fill-rule:nonzero;"/></g><g transform="matrix(8.42562,0,0,8.42562,53.618,69.4375)"><path d="M0.226,-0.459l0,-0.291l0.109,0l0,0.75l-0.107,-0l-0,-0.059l-0.001,0c-0.013,0.043 -0.042,0.065 -0.086,0.065c-0.014,0 -0.027,-0.002 -0.038,-0.005c-0.011,-0.004 -0.023,-0.012 -0.034,-0.023c-0.011,-0.011 -0.02,-0.027 -0.027,-0.046c-0.007,-0.019 -0.013,-0.044 -0.018,-0.076c-0.005,-0.032 -0.007,-0.07 -0.007,-0.113c-0,-0.068 0.005,-0.122 0.016,-0.16c0.011,-0.039 0.025,-0.066 0.042,-0.079c0.018,-0.013 0.039,-0.02 0.066,-0.02c0.044,0 0.072,0.019 0.084,0.057l0.001,0Zm-0.022,0.052c-0.006,-0.007 -0.015,-0.011 -0.027,-0.011c-0.012,0 -0.021,0.003 -0.027,0.01c-0.006,0.007 -0.011,0.022 -0.015,0.046c-0.004,0.024 -0.006,0.059 -0.006,0.106c-0,0.045 0.002,0.08 0.006,0.105c0.005,0.025 0.01,0.041 0.016,0.048c0.007,0.007 0.015,0.011 0.026,0.011c0.018,0 0.031,-0.011 0.038,-0.032c0.007,-0.021 0.011,-0.065 0.011,-0.131c-0,-0.045 -0.002,-0.08 -0.006,-0.104c-0.004,-0.025 -0.009,-0.041 -0.016,-0.048Z" style="fill:#183861;fill-rule:nonzero;"/></g><g transform="matrix(8.42562,0,0,8.42562,57.7213,69.4375)"><path d="M0.241,-0.582l0,0.582l-0.123,-0l0,-0.582l-0.109,0l0,-0.118l0.341,-0l0,0.118l-0.109,0Z" style="fill:#183861;fill-rule:nonzero;"/></g><g transform="matrix(8.42562,0,0,8.42562,60.1647,69.4375)"><path d="M0.296,-0.114l0,0.09c-0.021,0.021 -0.056,0.032 -0.105,0.032c-0.057,0 -0.101,-0.02 -0.132,-0.061c-0.03,-0.042 -0.045,-0.11 -0.045,-0.206c0,-0.173 0.052,-0.259 0.155,-0.259c0.051,0 0.087,0.017 0.11,0.05c0.023,0.033 0.034,0.09 0.034,0.169l0,0.071l-0.192,0c0.001,0.048 0.009,0.083 0.024,0.105c0.015,0.022 0.037,0.033 0.066,0.033c0.035,0 0.064,-0.008 0.085,-0.024Zm-0.175,-0.191l0.089,0c0,-0.047 -0.003,-0.078 -0.009,-0.094c-0.007,-0.016 -0.017,-0.024 -0.032,-0.024c-0.029,0 -0.045,0.039 -0.048,0.118Z" style="fill:#183861;fill-rule:nonzero;"/></g><g transform="matrix(8.42562,0,0,8.42562,62.9367,69.4375)"><path d="M0.273,-0.107l0,0.096c-0.023,0.013 -0.051,0.019 -0.084,0.019c-0.06,-0 -0.104,-0.021 -0.133,-0.064c-0.028,-0.042 -0.042,-0.11 -0.042,-0.203c0,-0.091 0.014,-0.157 0.041,-0.198c0.027,-0.041 0.071,-0.061 0.132,-0.061c0.03,0 0.058,0.005 0.083,0.016l0,0.098c-0.017,-0.009 -0.038,-0.013 -0.061,-0.013c-0.029,0 -0.05,0.011 -0.063,0.033c-0.013,0.021 -0.019,0.061 -0.019,0.119c-0,0.066 0.007,0.111 0.02,0.135c0.013,0.024 0.035,0.036 0.065,0.036c0.025,-0 0.046,-0.004 0.061,-0.013Z" style="fill:#183861;fill-rule:nonzero;"/></g><g transform="matrix(8.42562,0,0,8.42562,65.338,69.4375)"><path d="M0.323,-0.4l0,0.4l-0.11,-0l-0,-0.335c-0,-0.032 -0.003,-0.053 -0.009,-0.064c-0.005,-0.011 -0.015,-0.016 -0.03,-0.016c-0.014,0 -0.024,0.006 -0.031,0.018c-0.007,0.011 -0.01,0.031 -0.01,0.058l0,0.339l-0.109,-0l-0,-0.51l0.109,0l0,0.057l0.001,0c0.014,-0.042 0.045,-0.063 0.092,-0.063c0.065,0 0.097,0.039 0.097,0.116Z" style="fill:#183861;fill-rule:nonzero;"/></g><g transform="matrix(8.42562,0,0,8.42562,68.2364,69.4375)"><path d="M0.175,-0.091c0.011,-0 0.02,-0.003 0.027,-0.011c0.007,-0.007 0.012,-0.022 0.016,-0.047c0.004,-0.025 0.006,-0.06 0.006,-0.106c-0,-0.047 -0.002,-0.082 -0.007,-0.107c-0.004,-0.025 -0.009,-0.04 -0.016,-0.047c-0.006,-0.007 -0.015,-0.01 -0.026,-0.01c-0.012,0 -0.021,0.004 -0.028,0.01c-0.006,0.007 -0.011,0.023 -0.015,0.047c-0.004,0.025 -0.006,0.06 -0.006,0.107c0,0.046 0.002,0.082 0.007,0.107c0.005,0.025 0.01,0.04 0.016,0.047c0.007,0.007 0.015,0.01 0.026,0.01Zm0,0.099c-0.053,0 -0.093,-0.02 -0.12,-0.06c-0.027,-0.041 -0.041,-0.108 -0.041,-0.203c-0,-0.097 0.013,-0.166 0.04,-0.205c0.027,-0.038 0.067,-0.058 0.121,-0.058c0.056,0 0.097,0.019 0.122,0.058c0.026,0.039 0.039,0.107 0.039,0.205c0,0.096 -0.014,0.164 -0.041,0.204c-0.027,0.039 -0.067,0.059 -0.12,0.059Z" style="fill:#183861;fill-rule:nonzero;"/></g><g transform="matrix(8.42562,0,0,8.42562,71.1854,69.4375)"><rect x="0.024" y="-0.75" width="0.109" height="0.75" style="fill:#183861;fill-rule:nonzero;"/></g><g transform="matrix(8.42562,0,0,8.42562,72.4998,69.4375)"><path d="M0.175,-0.091c0.011,-0 0.02,-0.003 0.027,-0.011c0.007,-0.007 0.012,-0.022 0.016,-0.047c0.004,-0.025 0.006,-0.06 0.006,-0.106c-0,-0.047 -0.002,-0.082 -0.007,-0.107c-0.004,-0.025 -0.009,-0.04 -0.016,-0.047c-0.006,-0.007 -0.015,-0.01 -0.026,-0.01c-0.012,0 -0.021,0.004 -0.028,0.01c-0.006,0.007 -0.011,0.023 -0.015,0.047c-0.004,0.025 -0.006,0.06 -0.006,0.107c0,0.046 0.002,0.082 0.007,0.107c0.005,0.025 0.01,0.04 0.016,0.047c0.007,0.007 0.015,0.01 0.026,0.01Zm0,0.099c-0.053,0 -0.093,-0.02 -0.12,-0.06c-0.027,-0.041 -0.041,-0.108 -0.041,-0.203c-0,-0.097 0.013,-0.166 0.04,-0.205c0.027,-0.038 0.067,-0.058 0.121,-0.058c0.056,0 0.097,0.019 0.122,0.058c0.026,0.039 0.039,0.107 0.039,0.205c0,0.096 -0.014,0.164 -0.041,0.204c-0.027,0.039 -0.067,0.059 -0.12,0.059Zm0.141,-0.74l-0.102,0.138l-0.071,0l0.054,-0.138l0.119,0Z" style="fill:#183861;fill-rule:nonzero;"/></g><g transform="matrix(8.42562,0,0,8.42562,75.4488,69.4375)"><path d="M0.228,-0.455l0,-0.055l0.107,0l0,0.524c0,0.135 -0.061,0.203 -0.184,0.203c-0.045,-0 -0.079,-0.007 -0.104,-0.021l-0,-0.102c0.027,0.015 0.055,0.022 0.085,0.022c0.033,-0 0.056,-0.008 0.072,-0.025c0.014,-0.017 0.022,-0.044 0.022,-0.082l0,-0.079l-0.001,-0c-0.015,0.047 -0.044,0.07 -0.088,0.07c-0.017,-0 -0.033,-0.003 -0.046,-0.01c-0.013,-0.007 -0.025,-0.019 -0.037,-0.036c-0.012,-0.017 -0.021,-0.043 -0.028,-0.078c-0.006,-0.034 -0.009,-0.076 -0.009,-0.127c-0,-0.101 0.01,-0.171 0.031,-0.209c0.021,-0.037 0.051,-0.056 0.092,-0.056c0.026,0 0.045,0.005 0.058,0.015c0.014,0.011 0.023,0.026 0.029,0.046l0.001,0Zm-0.051,0.037c-0.011,0 -0.019,0.004 -0.025,0.011c-0.007,0.007 -0.012,0.022 -0.016,0.047c-0.005,0.024 -0.007,0.059 -0.007,0.104c0,0.042 0.002,0.075 0.007,0.099c0.005,0.024 0.01,0.04 0.017,0.047c0.007,0.007 0.015,0.011 0.025,0.011c0.017,-0 0.03,-0.011 0.037,-0.032c0.007,-0.021 0.011,-0.063 0.011,-0.125c-0,-0.066 -0.004,-0.109 -0.011,-0.131c-0.007,-0.02 -0.02,-0.031 -0.038,-0.031Z" style="fill:#183861;fill-rule:nonzero;"/></g><g transform="matrix(8.42562,0,0,8.42562,78.4736,69.4375)"><path d="M0.144,-0.666c0,0.044 -0.021,0.066 -0.064,0.066c-0.042,0 -0.063,-0.022 -0.063,-0.066c-0,-0.043 0.021,-0.065 0.063,-0.065c0.043,0 0.064,0.022 0.064,0.065Zm-0.009,0.156l0,0.51l-0.109,0l-0,-0.51l0.109,0Z" style="fill:#183861;fill-rule:nonzero;"/></g><g transform="matrix(8.42562,0,0,8.42562,79.8217,69.4375)"><path d="M0.273,-0.107l0,0.096c-0.023,0.013 -0.051,0.019 -0.084,0.019c-0.06,-0 -0.104,-0.021 -0.133,-0.064c-0.028,-0.042 -0.042,-0.11 -0.042,-0.203c0,-0.091 0.014,-0.157 0.041,-0.198c0.027,-0.041 0.071,-0.061 0.132,-0.061c0.03,0 0.058,0.005 0.083,0.016l0,0.098c-0.017,-0.009 -0.038,-0.013 -0.061,-0.013c-0.029,0 -0.05,0.011 -0.063,0.033c-0.013,0.021 -0.019,0.061 -0.019,0.119c-0,0.066 0.007,0.111 0.02,0.135c0.013,0.024 0.035,0.036 0.065,0.036c0.025,-0 0.046,-0.004 0.061,-0.013Z" style="fill:#183861;fill-rule:nonzero;"/></g><g transform="matrix(8.42562,0,0,8.42562,82.2398,69.4375)"><path d="M0.196,-0.172l0,-0.054c-0.011,-0.001 -0.018,-0.002 -0.022,-0.002c-0.02,0 -0.034,0.005 -0.041,0.014c-0.007,0.009 -0.01,0.027 -0.01,0.053c-0,0.027 0.003,0.045 0.008,0.056c0.005,0.011 0.014,0.016 0.026,0.016c0.026,0 0.039,-0.028 0.039,-0.083Zm0.109,-0.178l0,0.35l-0.104,-0l0,-0.058l-0.001,-0c-0.013,0.043 -0.042,0.064 -0.086,0.064c-0.067,-0 -0.1,-0.052 -0.1,-0.155c0,-0.055 0.011,-0.096 0.033,-0.122c0.021,-0.026 0.057,-0.039 0.106,-0.039c0.007,-0 0.021,0.001 0.043,0.003l0,-0.036c0,-0.029 -0.004,-0.049 -0.011,-0.06c-0.008,-0.01 -0.022,-0.015 -0.043,-0.015c-0.038,-0 -0.071,0.008 -0.1,0.024l0,-0.098c0.036,-0.017 0.078,-0.026 0.125,-0.026c0.052,-0 0.088,0.013 0.108,0.038c0.02,0.026 0.03,0.069 0.03,0.13Z" style="fill:#183861;fill-rule:nonzero;"/></g><g transform="matrix(8.42562,0,0,8.42562,45.344,77.8631)"><path d="M0.226,-0.459l0,-0.291l0.109,0l0,0.75l-0.107,-0l-0,-0.059l-0.001,0c-0.013,0.043 -0.042,0.065 -0.086,0.065c-0.014,0 -0.027,-0.002 -0.038,-0.005c-0.011,-0.004 -0.023,-0.012 -0.034,-0.023c-0.011,-0.011 -0.02,-0.027 -0.027,-0.046c-0.007,-0.019 -0.013,-0.044 -0.018,-0.076c-0.005,-0.032 -0.007,-0.07 -0.007,-0.113c-0,-0.068 0.005,-0.122 0.016,-0.16c0.011,-0.039 0.025,-0.066 0.042,-0.079c0.018,-0.013 0.039,-0.02 0.066,-0.02c0.044,0 0.072,0.019 0.084,0.057l0.001,0Zm-0.022,0.052c-0.006,-0.007 -0.015,-0.011 -0.027,-0.011c-0.012,0 -0.021,0.003 -0.027,0.01c-0.006,0.007 -0.011,0.022 -0.015,0.046c-0.004,0.024 -0.006,0.059 -0.006,0.106c-0,0.045 0.002,0.08 0.006,0.105c0.005,0.025 0.01,0.041 0.016,0.048c0.007,0.007 0.015,0.011 0.026,0.011c0.018,0 0.031,-0.011 0.038,-0.032c0.007,-0.021 0.011,-0.065 0.011,-0.131c-0,-0.045 -0.002,-0.08 -0.006,-0.104c-0.004,-0.025 -0.009,-0.041 -0.016,-0.048Z" style="fill:#183861;fill-rule:nonzero;"/></g><g transform="matrix(8.42562,0,0,8.42562,48.3688,77.8631)"><path d="M0.296,-0.114l0,0.09c-0.021,0.021 -0.056,0.032 -0.105,0.032c-0.057,0 -0.101,-0.02 -0.132,-0.061c-0.03,-0.042 -0.045,-0.11 -0.045,-0.206c0,-0.173 0.052,-0.259 0.155,-0.259c0.051,0 0.087,0.017 0.11,0.05c0.023,0.033 0.034,0.09 0.034,0.169l0,0.071l-0.192,0c0.001,0.048 0.009,0.083 0.024,0.105c0.015,0.022 0.037,0.033 0.066,0.033c0.035,0 0.064,-0.008 0.085,-0.024Zm-0.175,-0.191l0.089,0c0,-0.047 -0.003,-0.078 -0.009,-0.094c-0.007,-0.016 -0.017,-0.024 -0.032,-0.024c-0.029,0 -0.045,0.039 -0.048,0.118Z" style="fill:#183861;fill-rule:nonzero;"/></g><g transform="matrix(8.42562,0,0,8.42562,52.2194,77.8631)"><path d="M0.147,-0.587l0,0.24l0.026,-0c0.021,-0 0.037,-0.01 0.046,-0.029c0.009,-0.019 0.013,-0.049 0.013,-0.092c0,-0.044 -0.004,-0.075 -0.013,-0.093c-0.009,-0.017 -0.024,-0.026 -0.045,-0.026l-0.027,0Zm0.003,0.353l0,0.234l-0.122,-0l0,-0.7l0.156,0c0.059,0 0.102,0.018 0.13,0.054c0.028,0.035 0.042,0.093 0.042,0.173c0,0.08 -0.015,0.14 -0.043,0.18c-0.029,0.039 -0.076,0.059 -0.14,0.059l-0.023,-0Z" style="fill:#183861;fill-rule:nonzero;"/></g><g transform="matrix(8.42562,0,0,8.42562,55.2273,77.8631)"><path d="M0.296,-0.114l0,0.09c-0.021,0.021 -0.056,0.032 -0.105,0.032c-0.057,0 -0.101,-0.02 -0.132,-0.061c-0.03,-0.042 -0.045,-0.11 -0.045,-0.206c0,-0.173 0.052,-0.259 0.155,-0.259c0.051,0 0.087,0.017 0.11,0.05c0.023,0.033 0.034,0.09 0.034,0.169l0,0.071l-0.192,0c0.001,0.048 0.009,0.083 0.024,0.105c0.015,0.022 0.037,0.033 0.066,0.033c0.035,0 0.064,-0.008 0.085,-0.024Zm-0.175,-0.191l0.089,0c0,-0.047 -0.003,-0.078 -0.009,-0.094c-0.007,-0.016 -0.017,-0.024 -0.032,-0.024c-0.029,0 -0.045,0.039 -0.048,0.118Z" style="fill:#183861;fill-rule:nonzero;"/></g><g transform="matrix(8.42562,0,0,8.42562,57.9993,77.8631)"><path d="M0.133,-0.277l0,0.277l-0.109,-0l-0,-0.51l0.106,0l0,0.068l0.001,0c0.011,-0.049 0.036,-0.074 0.075,-0.074c0.01,0 0.021,0.002 0.033,0.006l0,0.108c-0.009,-0.006 -0.023,-0.009 -0.042,-0.009c-0.023,0 -0.04,0.01 -0.05,0.03c-0.009,0.02 -0.014,0.055 -0.014,0.104Z" style="fill:#183861;fill-rule:nonzero;"/></g><g transform="matrix(8.42562,0,0,8.42562,59.9541,77.8631)"><path d="M0.296,-0.114l0,0.09c-0.021,0.021 -0.056,0.032 -0.105,0.032c-0.057,0 -0.101,-0.02 -0.132,-0.061c-0.03,-0.042 -0.045,-0.11 -0.045,-0.206c0,-0.173 0.052,-0.259 0.155,-0.259c0.051,0 0.087,0.017 0.11,0.05c0.023,0.033 0.034,0.09 0.034,0.169l0,0.071l-0.192,0c0.001,0.048 0.009,0.083 0.024,0.105c0.015,0.022 0.037,0.033 0.066,0.033c0.035,0 0.064,-0.008 0.085,-0.024Zm-0.175,-0.191l0.089,0c0,-0.047 -0.003,-0.078 -0.009,-0.094c-0.007,-0.016 -0.017,-0.024 -0.032,-0.024c-0.029,0 -0.045,0.039 -0.048,0.118Z" style="fill:#183861;fill-rule:nonzero;"/></g><g transform="matrix(8.42562,0,0,8.42562,62.7261,77.8631)"><path d="M0.144,-0.666c0,0.044 -0.021,0.066 -0.064,0.066c-0.042,0 -0.063,-0.022 -0.063,-0.066c-0,-0.043 0.021,-0.065 0.063,-0.065c0.043,0 0.064,0.022 0.064,0.065Zm-0.009,0.156l0,0.51l-0.109,0l-0,-0.51l0.109,0Z" style="fill:#183861;fill-rule:nonzero;"/></g><g transform="matrix(8.42562,0,0,8.42562,64.0742,77.8631)"><path d="M0.133,-0.277l0,0.277l-0.109,-0l-0,-0.51l0.106,0l0,0.068l0.001,0c0.011,-0.049 0.036,-0.074 0.075,-0.074c0.01,0 0.021,0.002 0.033,0.006l0,0.108c-0.009,-0.006 -0.023,-0.009 -0.042,-0.009c-0.023,0 -0.04,0.01 -0.05,0.03c-0.009,0.02 -0.014,0.055 -0.014,0.104Z" style="fill:#183861;fill-rule:nonzero;"/></g><g transform="matrix(8.42562,0,0,8.42562,66.0289,77.8631)"><path d="M0.196,-0.172l0,-0.054c-0.011,-0.001 -0.018,-0.002 -0.022,-0.002c-0.02,0 -0.034,0.005 -0.041,0.014c-0.007,0.009 -0.01,0.027 -0.01,0.053c-0,0.027 0.003,0.045 0.008,0.056c0.005,0.011 0.014,0.016 0.026,0.016c0.026,0 0.039,-0.028 0.039,-0.083Zm0.109,-0.178l0,0.35l-0.104,-0l0,-0.058l-0.001,-0c-0.013,0.043 -0.042,0.064 -0.086,0.064c-0.067,-0 -0.1,-0.052 -0.1,-0.155c0,-0.055 0.011,-0.096 0.033,-0.122c0.021,-0.026 0.057,-0.039 0.106,-0.039c0.007,-0 0.021,0.001 0.043,0.003l0,-0.036c0,-0.029 -0.004,-0.049 -0.011,-0.06c-0.008,-0.01 -0.022,-0.015 -0.043,-0.015c-0.038,-0 -0.071,0.008 -0.1,0.024l0,-0.098c0.036,-0.017 0.078,-0.026 0.125,-0.026c0.052,-0 0.088,0.013 0.108,0.038c0.02,0.026 0.03,0.069 0.03,0.13Z" style="fill:#183861;fill-rule:nonzero;"/></g></g></g></svg>